<?xml version="1.0" encoding="utf-8"?><svg viewBox="0 0 255 208" xmlns="http://www.w3.org/2000/svg" xmlns:xlink="http://www.w3.org/1999/xlink"><style>:root>svg{display:none}:root>svg:target{display:block}</style><svg viewBox="0 0 24 24" id="icons--arrow" xmlns="http://www.w3.org/2000/svg"><path d="M12 4l-1.41 1.41L16.17 11H4v2h12.17l-5.58 5.59L12 20l8-8-8-8z" fill="#5A98D0"/></svg><svg viewBox="0 0 241 132" id="icons--img-1" xmlns="http://www.w3.org/2000/svg"><path d="M191.995 66a66.476 66.476 0 01-9.592 34.377 65.762 65.762 0 01-27.839 25.275 62.77 62.77 0 01-6.489 2.683 65.182 65.182 0 01-49.145-2.469 65.659 65.659 0 01-27.323-23.914A66.372 66.372 0 0161.11 68.967a66.445 66.445 0 017.52-33.801A65.794 65.794 0 0192.095 9.859 65.095 65.095 0 01125.042.017a65.056 65.056 0 0133.354 8.333 65.727 65.727 0 0124.574 24.215 66.423 66.423 0 019.025 33.425V66z" fill="url(#bpaint0_linear)"/><path d="M100.854 106.742l-7.231-11.387s20.031-23.344 22.036-24.723c0 0-10.104 17.088-14.805 36.11z" fill="url(#bpaint1_linear)"/><path d="M93.623 95.355L79.99 107.572 54.91 95.355l-19.188 1.06s11.952 4.071 15.314 3.903l3.368-.168s20.597 20.02 25.333 21.547c4.737 1.527 20.294-10.445 20.294-10.445l.903-4.474-7.311-11.423z" fill="url(#bpaint2_linear)"/><path d="M131.241 67.868a18.402 18.402 0 01-6.024 1.751c-2.419.367-6.095-.987-6.095-.987 2.777-2.204 2.131-7.402 2.131-7.402l.06-.03c2.964-.23 5.444-1.924 7.176-3.563-.626 4.449 2.752 10.231 2.752 10.231z" fill="url(#bpaint3_linear)"/><path d="M131.241 51.315v3.054a18.634 18.634 0 01-2.747 3.252c-1.732 1.645-4.211 3.34-7.175 3.564a9.022 9.022 0 01-3.959-.586c-8.079-3.054-2.398-19.215-2.398-19.215 2.565-6.577 14.178-3.396 14.178-3.396 1.555 1.868 1.853 7.086 1.793 7.595a10.075 10.075 0 01-1.01 2.036s2.207-2.097 2.964-.702c.757 1.394-1.646 4.398-1.646 4.398z" fill="url(#bpaint4_linear)"/><path d="M131.241 54.379v-3.054s2.398-2.978 1.641-4.383c-.757-1.405-2.964.703-2.964.703.412-.638.751-1.321 1.01-2.037.06-.508-.192-5.43-1.793-7.594 0 0-11.613-3.181-14.178 3.395 0 0-3.323-.85-6.186-4.836-4.681-6.52.909-7.32 6.448-6.062 6.721 1.527 13.457-3.482 21.157 1.608 7.7 5.09.798 16.66-5.135 22.26z" fill="#262F72"/><g filter="url(#bfilter0_d)"><path d="M78.384 25.96H12.868c-1.584 0-2.868 1.295-2.868 2.892V89.75c0 1.597 1.284 2.891 2.868 2.891h65.516c1.584 0 2.868-1.294 2.868-2.891v-60.9c0-1.596-1.284-2.89-2.868-2.89z" fill="#fff"/></g><path d="M20.912 38.044a1.54 1.54 0 01-.677.448c-.312.11-.64.163-.97.158a1.912 1.912 0 01-.98-.244 1.634 1.634 0 01-.65-.713 2.531 2.531 0 01-.238-1.1v-.295c-.009-.386.065-.77.217-1.125.131-.3.35-.554.627-.727a2.051 2.051 0 012.156.117c.3.277.482.663.505 1.074h-.864a.868.868 0 00-.262-.545.833.833 0 00-.556-.173.782.782 0 00-.692.341c-.177.308-.26.663-.237 1.018v.275c-.022.358.068.714.258 1.018a.885.885 0 00.752.351c.256.023.51-.054.712-.213v-.749h-.808v-.656h1.697l.01 1.74z" fill="#64B5F6"/><path d="M72.83 34.191H26.406a1.03 1.03 0 00-1.025 1.033v3.757c0 .57.459 1.033 1.025 1.033H72.83a1.03 1.03 0 001.025-1.033v-3.757a1.03 1.03 0 00-1.025-1.033z" fill="#E7EEF2"/><path d="M73.855 43.303H25.38v1.018h48.474v-1.018z" fill="#BBDEFB"/><path d="M73.855 45.593H25.38v1.018h48.474v-1.018zM73.855 47.884H25.38v1.018h48.474v-1.018zM73.855 50.174H25.38v1.019h48.474v-1.019z" fill="#E7E8E9"/><path d="M73.855 54.46H25.38v1.018h48.474V54.46z" fill="#BBDEFB"/><path d="M73.855 56.751H25.38v1.018h48.474v-1.018zM73.855 59.042H25.38v1.018h48.474v-1.018zM73.855 61.332H25.38v1.018h48.474v-1.018z" fill="#E7E8E9"/><path d="M73.855 65.491H25.38v1.018h48.474v-1.018z" fill="#BBDEFB"/><path d="M73.855 67.782H25.38V68.8h48.474v-1.018zM73.855 70.072H25.38v1.018h48.474v-1.018zM73.855 72.363H25.38v1.018h48.474v-1.018z" fill="#E7E8E9"/><path d="M73.855 76.522H25.38v1.017h48.474v-1.017z" fill="#BBDEFB"/><path d="M73.855 78.812H25.38v1.018h48.474v-1.018zM73.855 81.103H25.38v1.018h48.474v-1.018zM73.855 83.393H25.38v1.018h48.474v-1.018z" fill="#E7E8E9"/><path d="M148.707 92.46c3.454 10.363 6.014 22.36 7.761 32.241-.626.331-1.262.646-1.904.952a62.77 62.77 0 01-6.488 2.682 61.329 61.329 0 01-4.641 1.436 65.186 65.186 0 01-44.505-3.905 63.508 63.508 0 01-1.702-.829c1.01-5.228 2.212-11.372 3.621-18.29.512-2.507 1.049-5.117 1.611-7.828 2.893-13.892 7.044-21.456 10.472-25.553l.035-.041a21.533 21.533 0 012.111-2.189.432.432 0 01.071-.066c.171-.153.343-.295.505-.433 2.065-1.695 3.469-2.005 3.469-2.005l.126.045h.071c1.096.436 2.246.722 3.418.85h.227c.749.073 1.502.085 2.252.036h.046a14.267 14.267 0 005.948-1.73 21.595 21.595 0 016.004 3.12c5.221 3.863 15.739 18.03 15.739 18.03l-4.247 3.476z" fill="url(#bpaint5_linear)"/><path d="M167.939 111.802c-.03 1.415-1.307 4.286-3.176 7.768a64.995 64.995 0 01-8.301 5.131c-.626.33-1.262.646-1.904.951a62.77 62.77 0 01-6.488 2.683l4.878-15.673L140.324 99.3l8.377-6.841 4.247-3.466s15.123 17.337 14.991 22.809z" fill="url(#bpaint6_linear)"/><defs><linearGradient id="bpaint0_linear" x1="126.788" y1="7.167" x2="124.512" y2="137.263" gradientUnits="userSpaceOnUse"><stop stop-color="#fff" stop-opacity="0"/><stop offset="1" stop-color="#64B5F6" stop-opacity=".6"/></linearGradient><linearGradient id="bpaint1_linear" x1="106.231" y1="68.209" x2="102.384" y2="103.452" gradientUnits="userSpaceOnUse"><stop stop-color="#42A5F5"/><stop offset="1" stop-color="#1565C0"/></linearGradient><linearGradient id="bpaint2_linear" x1="62.534" y1="105.322" x2="104.455" y2="110.833" gradientUnits="userSpaceOnUse"><stop stop-color="#FFE082"/><stop offset="1" stop-color="#FFA726"/></linearGradient><linearGradient id="bpaint3_linear" x1="9417.78" y1="2544.52" x2="9420.77" y2="2315.66" gradientUnits="userSpaceOnUse"><stop stop-color="#FFE082"/><stop offset="1" stop-color="#FFA726"/></linearGradient><linearGradient id="bpaint4_linear" x1="14987.3" y1="4075.82" x2="15780.5" y2="4075.82" gradientUnits="userSpaceOnUse"><stop stop-color="#FFE082"/><stop offset="1" stop-color="#FFA726"/></linearGradient><linearGradient id="bpaint5_linear" x1="42948.6" y1="15103.6" x2="48847.7" y2="20773.6" gradientUnits="userSpaceOnUse"><stop stop-color="#42A5F5"/><stop offset="1" stop-color="#1565C0"/></linearGradient><linearGradient id="bpaint6_linear" x1="23009.9" y1="12265.9" x2="22606.5" y2="9747.27" gradientUnits="userSpaceOnUse"><stop stop-color="#FFE082"/><stop offset="1" stop-color="#FFA726"/></linearGradient><filter id="bfilter0_d" x="0" y="19.96" width="91.252" height="86.682" filterUnits="userSpaceOnUse" color-interpolation-filters="sRGB"><feFlood flood-opacity="0" result="BackgroundImageFix"/><feColorMatrix in="SourceAlpha" values="0 0 0 0 0 0 0 0 0 0 0 0 0 0 0 0 0 0 127 0" result="hardAlpha"/><feOffset dy="4"/><feGaussianBlur stdDeviation="5"/><feColorMatrix values="0 0 0 0 0 0 0 0 0 0 0 0 0 0 0 0 0 0 0.15 0"/><feBlend in2="BackgroundImageFix" result="effect1_dropShadow"/><feBlend in="SourceGraphic" in2="effect1_dropShadow" result="shape"/></filter></defs></svg><svg viewBox="0 0 255 208" id="icons--img-2" xmlns="http://www.w3.org/2000/svg"><path d="M188.522 135.763a65.547 65.547 0 01-5.648 26.668 65.95 65.95 0 01-16.026 22.121 67.736 67.736 0 01-5.987 4.83 66.142 66.142 0 01-8.434 5.135h-.031c-.626.327-1.262.637-1.903.938a64.748 64.748 0 01-6.592 2.685c-1.539.509-3.119 1.019-4.715 1.437a67.277 67.277 0 01-28.215 1.319 63.994 63.994 0 01-3.304-.631l-.924-.209a66.078 66.078 0 01-14.513-5.218c-.39-.193-.774-.392-1.159-.591a66.339 66.339 0 01-25.48-23.475 65.74 65.74 0 01-10.083-33.034 65.703 65.703 0 018.07-33.575 66.267 66.267 0 0124.018-24.95 66.864 66.864 0 0133.41-9.514 66.883 66.883 0 0133.681 8.518 66.298 66.298 0 0124.758 24.226 65.712 65.712 0 019.077 33.32z" fill="url(#cpaint0_linear)"/><path d="M139.432 140.542c4.237 4.331 16.58 21.185 16.58 21.185l-7.582 11.04-6.818-21.933-2.18-10.292z" fill="url(#cpaint1_linear)"/><path d="M152.396 194.553c-.626.326-1.262.637-1.904.938-.292.142-.579.275-.877.407a64.326 64.326 0 01-5.715 2.278c-1.539.509-3.119 1.019-4.714 1.436a67.265 67.265 0 01-28.216 1.32 63.148 63.148 0 01-3.304-.632c-4.001 2.741-7.695 5.059-10.142 6.114l.2-1.696.831-7.098 1.924-16.512 7.623-7.322-17.14 1.32s1.801-24.812 8.83-29.917c7.028-5.106 14.4-9.681 14.4-9.681a9.64 9.64 0 002.868 1.269c2.437.669 4.971.926 7.495.759 3.006-.138 6.012-2.914 6.156-3.057 0 0 4.719.932 8.721 6.083a24.393 24.393 0 014.212 8.896c.985 3.765 2.734 12.559 4.725 23.182 1.303 6.837 2.672 14.419 4.027 21.913z" fill="url(#cpaint2_linear)"/><path d="M156.012 161.747l7.316 8.514 25.727-25.363.975-5.192 5.13-4.427-2.283 6.751v8.793s-19.843 31.946-25.312 33.591c-6.397 1.931-19.125-11.657-19.125-11.657l7.572-11.01z" fill="url(#cpaint3_linear)"/><path d="M129.306 173.389l5.966 14.266 7.71-3.292-5.653-13.96-8.023 2.986z" fill="#7E57C2"/><path d="M137.616 182.606c-.959.784-2.391.601-4.166.692a10.243 10.243 0 00-6.464 2.517c-2.385 1.992-9.054 7.205-15.723 11.963-1.211.861-2.422 1.712-3.591 2.548-4.002 2.741-7.695 5.059-10.142 6.113a6.132 6.132 0 01-2.052.597c-3.427.086-4.161-7.047-4.371-12.738-.067-1.89-.082-3.617-.118-4.865-.144-4.993 0-14.266 0-14.266l17.139-1.325-1.816 11.79-.318 2.084v.015l5.13-1.885.159-.056 18.212-6.72 1.257-2.155.8 2.037h.077l7.798-1.018s.133 3.087-1.811 4.672z" fill="url(#cpaint4_linear)"/><path d="M133.681 108.25c-.447-1.212-.831-2.038-.944-2.282v-.061s-.395.968-3.371.733c-2.975-.234-3.96-1.701-3.96-1.701s.934 3.179-2.611 4.539c-3.412 1.315-4.756.464-4.848.403.179.193 2.847 3.026 1.077 5.273-1.831 2.328-5.951 1.87-5.951 1.87v.03a36.052 36.052 0 001.739 3.409c.339.581.672 1.116 1.026 1.615v.036a11.648 11.648 0 003.591 3.653 17.48 17.48 0 01-5.237 9.756c.928.482 1.886.905 2.867 1.269 1.914.718 4.484 1.432 6.777 1.233a10.745 10.745 0 006.885-3.526l-1.175-4.478-1.057-4.035c9.552-2.42 6.926-12.946 5.192-17.736zm-5.725 17.883l.169-.04.272-.077a4.61 4.61 0 01-1.242.337c.221-.057.447-.118.683-.189l.118-.031z" fill="url(#cpaint5_linear)"/><path d="M139.432 105.774c-3.94 3.597-5.643 2.583-5.751 2.487v-.011c-.446-1.212-.831-2.038-.938-2.282l-.026-.061s-.4.968-3.376.733c-2.975-.234-3.955-1.701-3.955-1.701s.934 3.179-2.611 4.539c-3.417 1.315-4.761.464-4.848.403.18.188 2.847 3.021 1.077 5.268-1.831 2.328-5.951 1.875-5.951 1.875v.025a36.136 36.136 0 001.739 3.414c.342.577.684 1.116 1.026 1.615v.036s-1.405 2.746-3.914 2.69c-2.508-.056-2.565-2.548-2.565-2.548s-1.775 3.179-7.259.117-1.826-7.499-1.826-7.499-3.889-2.955-3.889-7.383c0-4.427 6.054-7.795 6.054-7.795s-2.165-5.14 1.487-7.974c3.653-2.832 9.142-.912 9.142-.912s-.107-6.577 5.484-6.47c5.592.107 6.859 3.505 6.859 3.505s5.028-3.862 10.004-.224 2.929 9.981 2.929 9.981 5.217 4.427 1.108 8.172z" fill="url(#cpaint6_linear)"/><path opacity=".15" d="M129.587 130.006c-2.385-.749-6.628-3.608-6.628-3.608a16.01 16.01 0 005.012-.264l.169-.041.329-.097h.046l1.072 4.01zM110.416 158.547l-2.313 15.285-1.816 11.79-4.227 3.49 9.198-3.317s-2.386-6.766-.842-27.248zM107.656 200.3c1.093.24 2.191.449 3.304.632.056-1.044.159-2.099.303-3.154l-3.607 2.522z"/><g filter="url(#cfilter0_d)"><path d="M85.423 10h-27.43c-3.786 0-6.854 3.047-6.854 6.807v27.242c0 3.76 3.068 6.807 6.853 6.807h27.431c3.785 0 6.854-3.047 6.854-6.807V16.807c0-3.76-3.069-6.807-6.854-6.807z" fill="#56CCF2"/></g><path d="M82 29h-4.17l3.24-3.24-1.41-1.42L75 29h-2v-2l4.66-4.66-1.42-1.41L73 24.17V20h-2v4.17l-3.24-3.24-1.42 1.41L71 27v2h-2l-4.66-4.66-1.41 1.42L66.17 29H62v2h4.17l-3.24 3.24 1.41 1.42L69 31h2v2l-4.66 4.66 1.42 1.41L71 35.83V40h2v-4.17l3.24 3.24 1.42-1.41L73 33v-2h2l4.66 4.66 1.41-1.42L77.83 31H82v-2z" fill="#fff"/><g filter="url(#cfilter1_d)"><path d="M227.284 113h-27.43c-3.785 0-6.854 3.048-6.854 6.807v27.242c0 3.76 3.069 6.807 6.854 6.807h27.43c3.786 0 6.854-3.047 6.854-6.807v-27.242c0-3.759-3.068-6.807-6.854-6.807z" fill="#F2C94C"/></g><path d="M223 130c0-5-4-9-9-9s-9 4-9 9c0 3.1 1.6 5.9 4 7.5v2.5c0 1.3.8 2.4 2 2.8v.2c0 1.7 1.3 3 3 3s3-1.3 3-3v-.2c1.2-.4 2-1.5 2-2.8v-2.5c2.4-1.6 4-4.4 4-7.5zm-16 0c0-3.9 3.1-7 7-7s7 3.1 7 7c0 3.5-2.6 6.4-6 6.9v-2.5l1.7-1.7c.4-.4.4-1 0-1.4-.4-.4-1-.4-1.4 0l-1.3 1.3-1.3-1.3c-.4-.4-1-.4-1.4 0-.4.4-.4 1 0 1.4l1.7 1.7v2.5c-3.4-.5-6-3.4-6-6.9zm7 14c-.6 0-1-.4-1-1h2c0 .6-.4 1-1 1zm3-4c0 .6-.4 1-1 1h-4c-.6 0-1-.4-1-1v-1.5c.9.3 1.9.5 3 .5s2.1-.2 3-.5v1.5z" fill="#fff"/><g filter="url(#cfilter2_d)"><path d="M44.284 113h-27.43c-3.785 0-6.854 3.048-6.854 6.807v27.242c0 3.76 3.069 6.807 6.854 6.807h27.43c3.786 0 6.854-3.047 6.854-6.807v-27.242c0-3.759-3.068-6.807-6.854-6.807z" fill="#F58A8A"/></g><path d="M37 130h-1v-2c0-2.76-2.24-5-5-5s-5 2.24-5 5v2h-1c-1.1 0-2 .9-2 2v10c0 1.1.9 2 2 2h12c1.1 0 2-.9 2-2v-10c0-1.1-.9-2-2-2zm-6 9c-1.1 0-2-.9-2-2s.9-2 2-2 2 .9 2 2-.9 2-2 2zm3.1-9h-6.2v-2c0-1.71 1.39-3.1 3.1-3.1 1.71 0 3.1 1.39 3.1 3.1v2z" fill="#fff"/><g filter="url(#cfilter3_d)"><path d="M182.284 10h-27.43c-3.785 0-6.854 3.047-6.854 6.807v27.242c0 3.76 3.069 6.807 6.854 6.807h27.43c3.786 0 6.854-3.047 6.854-6.807V16.807c0-3.76-3.068-6.807-6.854-6.807z" fill="#6FCF97"/></g><path d="M174.311 24.896h-16.332v10.207h16.332V24.896zM178.713 26.928l-3.605 1.515V31.6l3.605 1.515h1.307v-6.187h-1.307z" fill="#fff"/><defs><linearGradient id="cpaint0_linear" x1="122.273" y1="76.865" x2="120.029" y2="207.076" gradientUnits="userSpaceOnUse"><stop stop-color="#fff" stop-opacity="0"/><stop offset="1" stop-color="#64B5F6" stop-opacity=".6"/></linearGradient><linearGradient id="cpaint1_linear" x1="134.409" y1="136.165" x2="152.559" y2="168.279" gradientUnits="userSpaceOnUse"><stop stop-color="#E57373"/><stop offset="1" stop-color="#AD1457"/></linearGradient><linearGradient id="cpaint2_linear" x1="28141.2" y1="39794.5" x2="26229.2" y2="49295.9" gradientUnits="userSpaceOnUse"><stop stop-color="#E57373"/><stop offset="1" stop-color="#AD1457"/></linearGradient><linearGradient id="cpaint3_linear" x1="202.122" y1="147.94" x2="152.589" y2="176.833" gradientUnits="userSpaceOnUse"><stop stop-color="#FFF8E1"/><stop offset="1" stop-color="#FFCC80"/></linearGradient><linearGradient id="cpaint4_linear" x1="21652.4" y1="22319.6" x2="18981.7" y2="20506.4" gradientUnits="userSpaceOnUse"><stop stop-color="#FFF8E1"/><stop offset="1" stop-color="#FFCC80"/></linearGradient><linearGradient id="cpaint5_linear" x1="138.703" y1="113.439" x2="111.661" y2="124.652" gradientUnits="userSpaceOnUse"><stop stop-color="#FFF8E1"/><stop offset="1" stop-color="#FFCC80"/></linearGradient><linearGradient id="cpaint6_linear" x1="132.486" y1="84.146" x2="101.053" y2="126.911" gradientUnits="userSpaceOnUse"><stop stop-color="#FFB74D"/><stop offset="1" stop-color="#F4511E"/></linearGradient><filter id="cfilter0_d" x="41.139" y="0" width="71.138" height="70.856" filterUnits="userSpaceOnUse" color-interpolation-filters="sRGB"><feFlood flood-opacity="0" result="BackgroundImageFix"/><feColorMatrix in="SourceAlpha" values="0 0 0 0 0 0 0 0 0 0 0 0 0 0 0 0 0 0 127 0" result="hardAlpha"/><feOffset dx="5" dy="5"/><feGaussianBlur stdDeviation="7.5"/><feColorMatrix values="0 0 0 0 0 0 0 0 0 0 0 0 0 0 0 0 0 0 0.15 0"/><feBlend in2="BackgroundImageFix" result="effect1_dropShadow"/><feBlend in="SourceGraphic" in2="effect1_dropShadow" result="shape"/></filter><filter id="cfilter1_d" x="183" y="103" width="71.138" height="70.856" filterUnits="userSpaceOnUse" color-interpolation-filters="sRGB"><feFlood flood-opacity="0" result="BackgroundImageFix"/><feColorMatrix in="SourceAlpha" values="0 0 0 0 0 0 0 0 0 0 0 0 0 0 0 0 0 0 127 0" result="hardAlpha"/><feOffset dx="5" dy="5"/><feGaussianBlur stdDeviation="7.5"/><feColorMatrix values="0 0 0 0 0 0 0 0 0 0 0 0 0 0 0 0 0 0 0.15 0"/><feBlend in2="BackgroundImageFix" result="effect1_dropShadow"/><feBlend in="SourceGraphic" in2="effect1_dropShadow" result="shape"/></filter><filter id="cfilter2_d" x="0" y="103" width="71.138" height="70.856" filterUnits="userSpaceOnUse" color-interpolation-filters="sRGB"><feFlood flood-opacity="0" result="BackgroundImageFix"/><feColorMatrix in="SourceAlpha" values="0 0 0 0 0 0 0 0 0 0 0 0 0 0 0 0 0 0 127 0" result="hardAlpha"/><feOffset dx="5" dy="5"/><feGaussianBlur stdDeviation="7.5"/><feColorMatrix values="0 0 0 0 0 0 0 0 0 0 0 0 0 0 0 0 0 0 0.15 0"/><feBlend in2="BackgroundImageFix" result="effect1_dropShadow"/><feBlend in="SourceGraphic" in2="effect1_dropShadow" result="shape"/></filter><filter id="cfilter3_d" x="138" y="0" width="71.138" height="70.856" filterUnits="userSpaceOnUse" color-interpolation-filters="sRGB"><feFlood flood-opacity="0" result="BackgroundImageFix"/><feColorMatrix in="SourceAlpha" values="0 0 0 0 0 0 0 0 0 0 0 0 0 0 0 0 0 0 127 0" result="hardAlpha"/><feOffset dx="5" dy="5"/><feGaussianBlur stdDeviation="7.5"/><feColorMatrix values="0 0 0 0 0 0 0 0 0 0 0 0 0 0 0 0 0 0 0.15 0"/><feBlend in2="BackgroundImageFix" result="effect1_dropShadow"/><feBlend in="SourceGraphic" in2="effect1_dropShadow" result="shape"/></filter></defs></svg><svg viewBox="0 0 171 132" id="icons--img-3" xmlns="http://www.w3.org/2000/svg"><path d="M171 66.5a65.142 65.142 0 01-9.68 34.116 65.915 65.915 0 01-26.173 24.14 42.54 42.54 0 01-1.468.727l-.102.051-.351.167a64.15 64.15 0 01-6.548 2.662c-1.101.38-2.214.732-3.338 1.056l-1.345.368a66.803 66.803 0 01-44.914-3.874 67.422 67.422 0 01-1.717-.824l-1.02-.505a66.14 66.14 0 01-24.846-22.434 54.879 54.879 0 01-1.865-3.031c-.527-.9-1.036-1.81-1.529-2.733A64.777 64.777 0 0138.843 66.5c0-1.226.034-2.445.102-3.657C39.9 45.81 47.52 29.82 60.185 18.27 72.849 6.723 89.559.528 106.759 1.005c17.201.476 33.535 7.586 45.529 19.818 11.995 12.23 18.702 28.618 18.697 45.677H171z" fill="url(#dpaint0_linear)"/><path d="M91.945 64.171s-14.778-6.946-16.062-16.504c-1.284-9.557-.382-18.69 6.981-21.247 0 0 4.658-14.72 21.168-8.805 16.51 5.915 13.906 23.677 22.931 25.804 9.024 2.127 25.876-6.83 29.091 4.097s-7.358 10.26-14.385 19.535 3.827 14.144 1.839 20.53c-1.987 6.385-9.493 10.775-9.493 10.775L91.945 64.17z" fill="url(#dpaint1_linear)"/><path d="M71.71 85.136l4.173 11.25h.454l6.528-29.335C78.742 70.632 71.71 85.136 71.71 85.136z" fill="url(#dpaint2_linear)"/><path d="M64.382 100.654l-2.645 1.319c-3.281 1.95-8.183 1.394-8.183 1.394 2.65 2.955 17.57 6.3 21.763 6.214l.775-10.467h-9.294l-2.416 1.54z" fill="url(#dpaint3_linear)"/><path d="M133.679 125.468l-.102.051-.351.166a64.15 64.15 0 01-6.548 2.663c-1.101.38-2.214.732-3.338 1.055l-1.345.369a66.802 66.802 0 01-44.914-3.874 67.422 67.422 0 01-1.717-.824l-1.02-.505c.143-4.334.363-9.522.684-14.993.203-3.42.453-6.951.749-10.457.076-.915.158-1.824.24-2.733 1.202-12.922 3.128-24.905 6.216-28.714l.046-.05a3.154 3.154 0 011.58-1.137c4.458-1.05 7.602-1.404 8.097-2.314.494-.91 0-2.697 0-2.697l.886-.122c1.29-.192 3.791-.596 6.16-1.202.016.005.032.005.047 0 2.094-.54 4.076-1.238 5.044-2.076l1.988 5.238s14.945-1.874 20.78 3.759a.564.564 0 01.097.09c.061.056.119.115.173.178.347.364.656.761.922 1.187 1.901 3.03 3.246 15.195 4.179 28.39.214 3.031.408 6.163.576 9.23.387 7.082.677 13.942.871 19.322z" fill="url(#dpaint4_linear)"/><path opacity=".15" d="M133.577 125.534l-.351.167a64.17 64.17 0 01-6.548 2.662 67.4 67.4 0 01-3.338 1.056c-6.884-7.27-9.615-16.706-9.615-16.706l19.073-6.567.779 19.388z"/><path d="M126.856 67.05c6.904 6.72 8.407 20.824 7.134 31.321-1.274 10.497-3.639 20.328-8.551 20.025-4.912-.303-21.912-11.993-28.48-18.368l3.837-7.3 13.881 5.734V83.181l12.179-16.13z" fill="url(#dpaint5_linear)"/><path d="M126.856 67.05c6.904 6.72 8.407 20.824 7.134 31.321-1.274 10.497-3.639 20.328-8.551 20.025-4.912-.303-21.912-11.993-28.48-18.368l3.837-7.3 13.881 5.734V83.181l12.179-16.13z" fill="url(#dpaint6_linear)"/><g filter="url(#dfilter0_d)"><path d="M91.145 96.386h-63.69v2.733h63.69v-2.733z" fill="url(#dpaint7_linear)"/><path d="M63.435 62.843H15l12.454 33.543h48.43l-12.45-33.543z" fill="url(#dpaint8_linear)"/></g><path d="M41.997 99.119s8.357 4.147 13.667 4.248c5.31.101 11.139-4.248 11.139-4.248H41.997z" fill="url(#dpaint9_linear)"/><path d="M100.796 92.728s-7.348-3.677-10.512-4.081c-3.165-.405-12.99 7.739-12.99 7.739h13.861l5.82 3.642 3.821-7.3z" fill="url(#dpaint10_linear)"/><path d="M103.471 49.789c.037 2.766.241 5.528.612 8.27-3.287 1.833-7.134 2.819-11.251 3.298l-.24-3.298-.143-2.021v-.066a6.123 6.123 0 01-2.303-.505c-4.973-2.127-6.043-12.523-6.043-12.523 1.992-.08 4.586-3.642 4.586-3.642 1.452 2.202 8.189 6.456 12.097 5.314 3.908-1.142 3.603-3.874 3.603-3.874a4.185 4.185 0 011.767 1.394c.449.616.719 1.343.78 2.101.209 2.667-3.465 5.552-3.465 5.552z" fill="url(#dpaint11_linear)"/><path opacity=".15" d="M100.134 52.724c-.922 1.546-5.095 4.006-7.536 5.345l-.143-2.02c.153 0 .3-.051.443-.082a16.907 16.907 0 005.703-2.111 8.898 8.898 0 001.462-1.071l.071-.06zM108.949 96.103l10.813 4.385-5.095-3.642v-13.64s-1.595 11.851-5.718 12.897z"/><defs><linearGradient id="dpaint0_linear" x1="105.193" y1="8.094" x2="102.971" y2="137.225" gradientUnits="userSpaceOnUse"><stop stop-color="#fff" stop-opacity="0"/><stop offset="1" stop-color="#64B5F6" stop-opacity=".6"/></linearGradient><linearGradient id="dpaint1_linear" x1="75.399" y1="57.281" x2="156.655" y2="57.281" gradientUnits="userSpaceOnUse"><stop stop-color="#EF9A9A"/><stop offset="1" stop-color="#D81B60"/></linearGradient><linearGradient id="dpaint2_linear" x1="76.683" y1="82.883" x2="74.274" y2="110.514" gradientUnits="userSpaceOnUse"><stop stop-color="#7E57C2"/><stop offset="1" stop-color="#4527A0"/></linearGradient><linearGradient id="dpaint3_linear" x1="6813.02" y1="2527.43" x2="6789.49" y2="3103.43" gradientUnits="userSpaceOnUse"><stop stop-color="#7E57C2"/><stop offset="1" stop-color="#4527A0"/></linearGradient><linearGradient id="dpaint4_linear" x1="20341.2" y1="14858" x2="24468.7" y2="22492.9" gradientUnits="userSpaceOnUse"><stop stop-color="#7E57C2"/><stop offset="1" stop-color="#4527A0"/></linearGradient><linearGradient id="dpaint5_linear" x1="13960.4" y1="9770.53" x2="17624.5" y2="15926.1" gradientUnits="userSpaceOnUse"><stop stop-color="#7E57C2"/><stop offset="1" stop-color="#4527A0"/></linearGradient><linearGradient id="dpaint6_linear" x1="118.758" y1="72.749" x2="113.038" y2="119.812" gradientUnits="userSpaceOnUse"><stop offset=".14" stop-color="#7E57C2" stop-opacity="0"/><stop offset=".26" stop-color="#724DBB" stop-opacity=".21"/><stop offset=".48" stop-color="#5F3DAF" stop-opacity=".55"/><stop offset=".66" stop-color="#5131A7" stop-opacity=".79"/><stop offset=".81" stop-color="#482AA2" stop-opacity=".94"/><stop offset=".91" stop-color="#4527A0"/></linearGradient><linearGradient id="dpaint7_linear" x1="27.454" y1="97.75" x2="91.145" y2="97.75" gradientUnits="userSpaceOnUse"><stop stop-color="#D2D4D5"/><stop offset="1" stop-color="#AAACAE"/></linearGradient><linearGradient id="dpaint8_linear" x1="537.989" y1="4198.71" x2="4142.02" y2="8332.05" gradientUnits="userSpaceOnUse"><stop stop-color="#D2D4D5"/><stop offset="1" stop-color="#AAACAE"/></linearGradient><linearGradient id="dpaint9_linear" x1="43.577" y1="94.557" x2="63.884" y2="103.338" gradientUnits="userSpaceOnUse"><stop stop-color="#FFF8E1"/><stop offset="1" stop-color="#FFCC80"/></linearGradient><linearGradient id="dpaint10_linear" x1="7875.06" y1="2941.73" x2="8393.29" y2="3509.97" gradientUnits="userSpaceOnUse"><stop stop-color="#FFF8E1"/><stop offset="1" stop-color="#FFCC80"/></linearGradient><linearGradient id="dpaint11_linear" x1="8044.47" y1="3227.22" x2="8499.41" y2="4088.69" gradientUnits="userSpaceOnUse"><stop stop-color="#FFF8E1"/><stop offset="1" stop-color="#FFCC80"/></linearGradient><filter id="dfilter0_d" x="0" y="47.843" width="116.145" height="76.276" filterUnits="userSpaceOnUse" color-interpolation-filters="sRGB"><feFlood flood-opacity="0" result="BackgroundImageFix"/><feColorMatrix in="SourceAlpha" values="0 0 0 0 0 0 0 0 0 0 0 0 0 0 0 0 0 0 127 0" result="hardAlpha"/><feOffset dx="5" dy="5"/><feGaussianBlur stdDeviation="10"/><feColorMatrix values="0 0 0 0 0 0 0 0 0 0 0 0 0 0 0 0 0 0 0.2 0"/><feBlend in2="BackgroundImageFix" result="effect1_dropShadow"/><feBlend in="SourceGraphic" in2="effect1_dropShadow" result="shape"/></filter></defs></svg><svg viewBox="0 0 48 48" id="icons--logo" xmlns="http://www.w3.org/2000/svg"><circle cx="16" cy="24" r="16" fill="#316099"/><circle cx="32" cy="24" r="15" fill="#fff" stroke="#316099" stroke-width="2"/><path d="M39.3 30l-4.92-14h-3.42l-4.9 14h2.98l.84-2.52h5.58L36.3 30h3zm-6.62-10.82l1.92 5.72h-3.84l1.92-5.72z" fill="#316099"/></svg><svg viewBox="0 0 48 48" id="icons--logo-footer" xmlns="http://www.w3.org/2000/svg"><circle cx="16" cy="24" r="16" fill="#98C3E8"/><circle cx="32" cy="24" r="15" fill="#fff" stroke="#316099" stroke-width="2"/><path d="M38.3 31l-4.92-14h-3.42l-4.9 14h2.98l.84-2.52h5.58L35.3 31h3zm-6.62-10.82l1.92 5.72h-3.84l1.92-5.72z" fill="#316099"/></svg><svg viewBox="0 0 32 32" id="icons--menu-icon" xmlns="http://www.w3.org/2000/svg"><path d="M4 24h24v-2.667H4V24zm0-6.667h24v-2.666H4v2.666zM4 8v2.667h24V8H4z" fill="#356EAD"/></svg></svg>